<svg xmlns="http://www.w3.org/2000/svg" width="52" height="42" viewBox="0 0 52 42" fill="none">
  <g clip-path="url(#clip0_3671_3612)">
    <path d="M44.233 4.31586C40.8974 2.76506 37.2859 1.63947 33.5239 0.989136C33.4578 0.990075 33.3947 1.01705 33.3484 1.06418C32.8969 1.8896 32.3702 2.96516 32.0191 3.79059C28.0289 3.19066 23.9711 3.19066 19.9809 3.79059C19.6298 2.94015 19.1031 1.8896 18.6266 1.06418C18.6015 1.01415 18.5262 0.989136 18.451 0.989136C14.689 1.63947 11.1026 2.76506 7.74196 4.31586C7.71688 4.31586 7.6918 4.34088 7.66673 4.36589C0.845041 14.5462 -1.03594 24.4513 -0.107988 34.2564C-0.107988 34.3064 -0.0829088 34.3565 -0.0327494 34.3815C4.4816 37.6832 8.82039 39.6842 13.109 41.0099C13.1843 41.0349 13.2595 41.0099 13.2846 40.9599C14.2878 39.5842 15.1906 38.1334 15.9681 36.6076C16.0183 36.5076 15.9681 36.4075 15.8678 36.3825C14.4382 35.8322 13.0839 35.1819 11.7547 34.4315C11.6544 34.3815 11.6544 34.2314 11.7296 34.1564C12.0055 33.9563 12.2814 33.7311 12.5573 33.531C12.6074 33.481 12.6827 33.481 12.7328 33.506C21.3603 37.4331 30.6648 37.4331 39.1919 33.506C39.2421 33.481 39.3173 33.481 39.3675 33.531C39.6434 33.7562 39.9192 33.9563 40.1951 34.1814C40.2954 34.2564 40.2954 34.4065 40.17 34.4565C38.8659 35.2319 37.4865 35.8572 36.057 36.4075C35.9566 36.4325 35.9316 36.5576 35.9566 36.6327C36.7592 38.1584 37.6621 39.6092 38.6402 40.9849C38.7154 41.0099 38.7907 41.0349 38.8659 41.0099C43.1796 39.6842 47.5184 37.6832 52.0327 34.3815C52.0829 34.3565 52.108 34.3064 52.108 34.2564C53.2115 22.9255 50.2772 13.0954 44.3333 4.36589C44.3082 4.34088 44.2831 4.31586 44.233 4.31586ZM17.2723 28.2783C14.689 28.2783 12.5322 25.9021 12.5322 22.9756C12.5322 20.049 14.6389 17.6728 17.2723 17.6728C19.9307 17.6728 22.0374 20.0741 22.0123 22.9756C22.0123 25.9021 19.9056 28.2783 17.2723 28.2783ZM34.7528 28.2783C32.1696 28.2783 30.0128 25.9021 30.0128 22.9756C30.0128 20.049 32.1195 17.6728 34.7528 17.6728C37.4113 17.6728 39.518 20.0741 39.4929 22.9756C39.4929 25.9021 37.4113 28.2783 34.7528 28.2783Z" fill="#464199"/>
  </g>
  <defs>
    <clipPath id="clip0_3671_3612">
      <rect width="52" height="42" fill="white"/>
    </clipPath>
  </defs>
</svg>