<svg xmlns="http://www.w3.org/2000/svg" width="33" height="24" viewBox="0 0 33 24" fill="none">
  <path d="M33 2.55556V20.4444C33 21.1222 32.7326 21.7722 32.2565 22.2515C31.7804 22.7308 31.1348 23 30.4615 23H2.53846C1.86522 23 1.21955 22.7308 0.743498 22.2515C0.267444 21.7722 0 21.1222 0 20.4444V2.55556C0 1.87778 0.267444 1.22776 0.743498 0.748505C1.21955 0.269245 1.86522 0 2.53846 0H30.4615C31.1348 0 31.7804 0.269245 32.2565 0.748505C32.7326 1.22776 33 1.87778 33 2.55556ZM22.2115 11.5C22.2115 11.2947 22.1623 11.0924 22.0681 10.9103C21.9739 10.7282 21.8376 10.5716 21.6705 10.4538L15.3244 5.9816C15.1342 5.84748 14.9111 5.76845 14.6795 5.75311C14.4478 5.73777 14.2163 5.78671 14.0104 5.89459C13.8044 6.00247 13.6318 6.16517 13.5112 6.36497C13.3907 6.56478 13.327 6.79403 13.3269 7.02778V15.9722C13.327 16.206 13.3907 16.4352 13.5112 16.635C13.6318 16.8348 13.8044 16.9975 14.0104 17.1054C14.2163 17.2133 14.4478 17.2622 14.6795 17.2469C14.9111 17.2315 15.1342 17.1525 15.3244 17.0184L21.6705 12.5462C21.8376 12.4284 21.9739 12.2718 22.0681 12.0897C22.1623 11.9076 22.2115 11.7053 22.2115 11.5Z" fill="#464199"/>
</svg>