<svg xmlns="http://www.w3.org/2000/svg" width="55" height="60" viewBox="0 0 55 60" fill="none">
  <path d="M22.9672 32.2106C22.9672 29.1742 23.7455 26.3183 25.1123 23.8341C22.4955 20.7457 18.6074 18.7878 14.2643 18.7878C6.38653 18.7878 0 25.2277 0 33.1712C0 41.1148 6.38653 47.5546 14.2643 47.5546C18.9851 47.5546 23.169 45.2418 25.7661 41.6792C23.9988 38.9549 22.9688 35.7028 22.9688 32.2121L22.9672 32.2106ZM16.8568 40.7874C16.5655 41.3671 15.8632 41.5966 15.2882 41.3029L13.1068 40.1847L11.9979 42.3844C11.7066 42.9641 11.0042 43.1936 10.4293 42.8999C9.85437 42.6062 9.62682 41.8979 9.91808 41.3182L11.027 39.1185L8.84557 38.0004C8.27063 37.7067 8.04308 36.9984 8.33435 36.4187C8.62561 35.8389 9.32797 35.6095 9.90291 35.9032L12.0843 37.0214L13.1933 34.8217C13.4845 34.242 14.1869 34.0125 14.7618 34.3062C15.3368 34.5999 15.5643 35.3081 15.2731 35.8879L14.1641 38.0875L16.3456 39.2057C16.9205 39.4994 17.1481 40.2077 16.8568 40.7874ZM22.5455 26.2479C22.2846 26.4774 21.9509 26.5707 21.6323 26.5294C21.3592 26.4942 21.0953 26.3627 20.8996 26.1363C18.3465 23.1963 15.0152 23.3156 14.8741 23.3217C14.2354 23.3523 13.6848 22.8536 13.6529 22.2066C13.6195 21.5595 14.108 21.0088 14.7497 20.9721C14.9348 20.9614 19.3325 20.758 22.6563 24.5867C23.081 25.0762 23.0309 25.8181 22.547 26.2464L22.5455 26.2479Z" fill="#464199"/>
  <path d="M40.1593 17.2443C31.963 17.2443 25.3186 23.9443 25.3186 32.209C25.3186 40.4738 31.963 47.1738 40.1593 47.1738C48.3556 47.1738 55 40.4738 55 32.209C55 23.9443 48.3556 17.2443 40.1593 17.2443ZM42.858 40.1327C42.5546 40.7354 41.8234 40.9756 41.2257 40.6696L38.9563 39.5055L37.8019 41.7939C37.4985 42.3966 36.7673 42.6368 36.1696 42.3308C35.5719 42.0249 35.3337 41.2876 35.6371 40.6849L36.7916 38.3965L34.5222 37.2325C33.9245 36.9265 33.6863 36.1892 33.9897 35.5865C34.2931 34.9839 35.0243 34.7437 35.622 35.0496L37.8914 36.2137L39.0458 33.9253C39.3492 33.3226 40.0804 33.0825 40.6781 33.3884C41.2758 33.6944 41.514 34.4317 41.2106 35.0343L40.0561 37.3227L42.3256 38.4868C42.9232 38.7927 43.1614 39.53 42.858 40.1327ZM47.186 24.8131C44.5297 21.7538 41.0619 21.8777 40.9163 21.8838C40.2518 21.9159 39.6799 21.3974 39.645 20.7243C39.6117 20.0513 40.1183 19.4777 40.7858 19.4394C40.9785 19.4287 45.5552 19.2161 49.0124 23.1993C49.4539 23.7072 49.4023 24.4812 48.8987 24.9263C48.6271 25.1665 48.2797 25.2613 47.949 25.22C47.6638 25.1848 47.3908 25.0472 47.186 24.8116V24.8131ZM49.6981 28.186C49.0291 28.1463 48.5194 27.5665 48.5589 26.8919C48.5983 26.2174 49.1732 25.7034 49.8422 25.7432C50.5112 25.7829 51.0209 26.3627 50.9815 27.0373C50.9421 27.7118 50.3671 28.2258 49.6981 28.186Z" fill="#464199"/>
  <path d="M40.1593 49.5463C34.997 49.5463 30.358 47.2395 27.2042 43.5943C24.1657 47.4231 19.4933 49.8797 14.2627 49.8797C11.9069 49.8797 9.66626 49.3811 7.63501 48.4831C7.85953 48.6315 8.09618 48.8197 8.33283 48.9436C14.5965 52.2324 20.6857 52.3532 26.6141 48.4541C27.6623 47.7642 28.2312 47.7244 29.2415 48.4388C31.3213 49.9088 33.6059 50.8755 36.0998 51.3574C37.1754 51.5654 37.6153 52.11 37.6214 53.2098C37.632 54.764 37.6183 56.3196 37.6274 57.8738C37.635 59.1266 38.4678 60.003 39.6208 60C40.7919 59.9969 41.6247 59.1342 41.6262 57.886C41.6262 56.4083 41.5868 54.9307 41.5913 53.4515C41.5944 52.4633 42.1829 51.7459 43.0977 51.7949C43.5786 51.8209 44.3538 52.0121 44.4038 53.2664C44.4038 54.403 45.3064 55.258 46.3683 55.2397C47.5273 55.2198 48.2843 54.2225 48.2661 53.0232C48.2524 52.1314 48.301 51.2381 48.2661 50.3478C48.2327 49.5034 49.1854 49.0002 49.8316 48.425C53.5528 45.1837 54.3856 42.2513 54.5494 41.6976C54.554 41.6868 54.557 41.6761 54.5601 41.6639C51.4882 46.4028 46.1802 49.5417 40.1593 49.5417V49.5463Z" fill="#8784C9"/>
  <path d="M46.3926 59.9357C47.4399 59.9357 48.2888 59.0797 48.2888 58.0237C48.2888 56.9677 47.4399 56.1116 46.3926 56.1116C45.3453 56.1116 44.4964 56.9677 44.4964 58.0237C44.4964 59.0797 45.3453 59.9357 46.3926 59.9357Z" fill="#8784C9"/>
  <path d="M46.5124 10.2369C47.6259 7.44684 48.2418 4.54354 48.3738 1.53928C48.4345 0.173288 48.3419 0.0692699 46.9675 0.0340876C45.9072 0.00655367 44.8438 -0.0270986 43.7864 0.0356176C39.4933 0.291072 35.5264 1.40773 32.2831 4.47317C31.9691 4.76993 31.3623 4.9229 30.9238 4.87089C30.3125 4.79746 30.0834 4.2269 29.9985 3.62268C29.9681 3.40853 29.8225 3.20967 29.7239 3.00623C29.7178 2.99399 29.7057 2.99246 29.6921 2.99705C29.4857 3.06282 29.2506 3.1959 29.0989 3.35958C27.6274 4.94278 26.5094 6.74778 25.8677 8.82813C24.6071 12.9108 25.3868 16.7809 27.1086 20.5469C27.1283 20.5897 27.142 20.6341 27.1556 20.6769C28.4512 19.2038 29.9894 17.951 31.7051 16.9828C31.7097 16.9782 31.7157 16.9736 31.7203 16.969C32.764 15.3154 33.5983 13.5166 34.7907 11.9701C35.4263 11.1456 36.0983 10.419 36.8189 9.70922C37.2816 9.25338 37.8504 9.30997 38.3177 9.75816C38.794 10.2125 38.753 10.7111 38.4254 11.2373C38.2661 11.4913 38.0219 11.7299 37.8337 11.9685C36.9129 13.1372 35.9997 14.312 35.0834 15.4852C35.0698 15.5036 35.0865 15.5281 35.1077 15.5219C36.7066 15.0309 38.4041 14.7663 40.1608 14.7663C42.6441 14.7663 45.0061 15.2956 47.145 16.2455C47.1511 16.2485 47.1602 16.2485 47.1663 16.2455C47.5637 16.0237 47.8353 15.2573 47.8474 14.9667C47.855 14.7785 47.8444 14.4925 47.7382 14.4894C47.5091 14.4833 47.1693 14.5001 46.916 14.4772C46.7506 14.4619 46.6156 14.4496 46.4639 14.4328C45.1714 14.2951 44.8225 13.8194 45.3975 12.663C45.7934 11.8676 46.1848 11.0645 46.514 10.24L46.5124 10.2369Z" fill="#8784C9"/>
  <path d="M14.463 6.60706C13.9093 6.59023 13.7849 6.87628 13.7424 7.34435C13.4512 10.471 13.8683 13.5028 14.8377 16.4734C17.9551 16.5805 20.8556 17.561 23.307 19.1778C23.2828 19.1151 23.257 19.0631 23.2236 19.0188C22.2087 17.6925 21.2272 16.3373 20.1502 15.063C19.4918 14.2829 19.2779 13.6083 19.7633 13.0638C20.2715 12.4963 21.0376 12.5926 21.7885 13.3743C22.1647 13.7659 22.5971 14.2951 23.0097 14.7938C22.9672 14.3074 22.9445 13.8164 22.9445 13.3208C22.9445 11.7666 23.1569 10.2614 23.5528 8.83272C20.71 7.31988 17.6562 6.70495 14.4645 6.61012L14.463 6.60706Z" fill="#8784C9"/>
</svg>