<svg xmlns="http://www.w3.org/2000/svg" width="189" height="26" viewBox="0 0 189 26" fill="none">
  <path d="M2.03997 26C1.46424 26 0.99646 25.8678 0.636627 25.6033C0.300783 25.3389 0.096878 24.9903 0.0249115 24.5576C-0.047055 24.1008 0.0369059 23.5959 0.276794 23.043L9.77638 1.9473C10.0882 1.25012 10.4601 0.757282 10.8919 0.468794C11.3476 0.156265 11.8634 0 12.4391 0C12.9909 0 13.4827 0.156265 13.9145 0.468794C14.3702 0.757282 14.7541 1.25012 15.0659 1.9473L24.6015 23.043C24.8654 23.5959 24.9613 24.1008 24.8893 24.5576C24.8174 25.0143 24.6135 25.3749 24.2776 25.6394C23.9418 25.8798 23.498 26 22.9463 26C22.2746 26 21.7468 25.8437 21.363 25.5312C21.0032 25.1946 20.6793 24.6898 20.3914 24.0166L18.0525 18.5714L19.9956 19.8336H4.81069L6.75378 18.5714L4.45085 24.0166C4.139 24.7138 3.81515 25.2187 3.4793 25.5312C3.14346 25.8437 2.66368 26 2.03997 26ZM12.3672 5.30097L7.32951 17.3093L6.39395 16.1553H18.4124L17.5128 17.3093L12.4391 5.30097H12.3672Z" fill="#464199"/>
  <path d="M30.8676 26C30.124 26 29.5482 25.7957 29.1404 25.387C28.7566 24.9542 28.5647 24.3652 28.5647 23.62V2.63246C28.5647 1.86315 28.7686 1.28618 29.1764 0.901527C29.5842 0.492835 30.16 0.288489 30.9036 0.288489H39.5756C42.3583 0.288489 44.5053 0.961628 46.0166 2.30791C47.5279 3.63014 48.2835 5.4933 48.2835 7.89737C48.2835 9.46001 47.9357 10.8063 47.24 11.9362C46.5683 13.0661 45.5848 13.9316 44.2894 14.5326C42.994 15.1336 41.4227 15.4341 39.5756 15.4341L39.8994 14.8932H41.0869C42.0704 14.8932 42.922 15.1336 43.6417 15.6144C44.3853 16.0952 45.033 16.8525 45.5848 17.8863L48.2835 22.8988C48.5714 23.4036 48.7033 23.8964 48.6793 24.3773C48.6554 24.8581 48.4754 25.2547 48.1396 25.5673C47.8038 25.8558 47.312 26 46.6643 26C46.0166 26 45.4888 25.8678 45.081 25.6033C44.6732 25.3148 44.3134 24.8821 44.0015 24.3051L40.3672 17.5978C39.9354 16.7804 39.4196 16.2395 38.8199 15.975C38.2442 15.6865 37.5005 15.5423 36.589 15.5423H33.1706V23.62C33.1706 24.3652 32.9786 24.9542 32.5948 25.387C32.211 25.7957 31.6353 26 30.8676 26ZM33.1706 12.1165H38.7839C40.4392 12.1165 41.6866 11.7799 42.5262 11.1068C43.3898 10.4096 43.8216 9.37587 43.8216 8.00555C43.8216 6.65927 43.3898 5.64956 42.5262 4.97642C41.6866 4.27924 40.4392 3.93065 38.7839 3.93065H33.1706V12.1165Z" fill="#464199"/>
  <path d="M60.9502 26C60.2065 26 59.6308 25.7957 59.223 25.387C58.8392 24.9542 58.6473 24.3652 58.6473 23.62V4.14702H51.6305C51.0068 4.14702 50.515 3.97873 50.1552 3.64216C49.8194 3.28155 49.6515 2.80074 49.6515 2.19972C49.6515 1.57467 49.8194 1.10587 50.1552 0.793343C50.515 0.456774 51.0068 0.288489 51.6305 0.288489H70.2699C70.8936 0.288489 71.3733 0.456774 71.7092 0.793343C72.069 1.10587 72.2489 1.57467 72.2489 2.19972C72.2489 2.80074 72.069 3.28155 71.7092 3.64216C71.3733 3.97873 70.8936 4.14702 70.2699 4.14702H63.2531V23.62C63.2531 24.3652 63.0612 24.9542 62.6774 25.387C62.2936 25.7957 61.7178 26 60.9502 26Z" fill="#464199"/>
  <path d="M77.326 25.7115C76.5343 25.7115 75.9226 25.5072 75.4908 25.0985C75.083 24.6657 74.8791 24.0527 74.8791 23.2594V2.74064C74.8791 1.9473 75.083 1.34628 75.4908 0.937587C75.9226 0.504855 76.5343 0.288489 77.326 0.288489H85.9619C87.7371 0.288489 89.2484 0.552937 90.4958 1.08183C91.7432 1.61073 92.6908 2.36801 93.3385 3.35368C94.0102 4.33934 94.346 5.51734 94.346 6.88766C94.346 8.42626 93.9022 9.72446 93.0147 10.7822C92.1271 11.84 90.9156 12.5492 89.3803 12.9098V12.3689C91.1555 12.6334 92.5349 13.3065 93.5184 14.3884C94.502 15.4702 94.9937 16.8766 94.9937 18.6075C94.9937 20.8673 94.2261 22.6223 92.6908 23.8724C91.1795 25.0985 89.0685 25.7115 86.3577 25.7115H77.326ZM79.305 22.2136H85.782C87.4133 22.2136 88.6127 21.9011 89.3803 21.276C90.148 20.6269 90.5318 19.6653 90.5318 18.3911C90.5318 17.0929 90.148 16.1313 89.3803 15.5062C88.6127 14.8812 87.4133 14.5687 85.782 14.5687H79.305V22.2136ZM79.305 11.0707H85.1703C86.7536 11.0707 87.929 10.7702 88.6967 10.1692C89.4883 9.54415 89.8841 8.63061 89.8841 7.42857C89.8841 6.22654 89.4883 5.32501 88.6967 4.724C87.929 4.09894 86.7536 3.78641 85.1703 3.78641H79.305V11.0707Z" fill="#464199"/>
  <path d="M102.1 25.7115C101.308 25.7115 100.696 25.5072 100.264 25.0985C99.8566 24.6657 99.6527 24.0527 99.6527 23.2594V2.74064C99.6527 1.9473 99.8566 1.34628 100.264 0.937587C100.696 0.504855 101.308 0.288489 102.1 0.288489H114.946C115.545 0.288489 116.001 0.444753 116.313 0.757283C116.649 1.06981 116.817 1.51456 116.817 2.09154C116.817 2.69256 116.649 3.16135 116.313 3.49792C116.001 3.81045 115.545 3.96671 114.946 3.96671H104.079V10.9626H114.154C114.778 10.9626 115.245 11.1188 115.557 11.4313C115.869 11.7439 116.025 12.2006 116.025 12.8017C116.025 13.4027 115.869 13.8595 115.557 14.172C115.245 14.4845 114.778 14.6408 114.154 14.6408H104.079V22.0333H114.946C115.545 22.0333 116.001 22.1896 116.313 22.5021C116.649 22.8146 116.817 23.2714 116.817 23.8724C116.817 24.4734 116.649 24.9302 116.313 25.2427C116.001 25.5553 115.545 25.7115 114.946 25.7115H102.1Z" fill="#464199"/>
  <path d="M123.426 26C122.682 26 122.107 25.7957 121.699 25.387C121.315 24.9542 121.123 24.3652 121.123 23.62V2.63246C121.123 1.86315 121.327 1.28618 121.735 0.901527C122.143 0.492835 122.718 0.288489 123.462 0.288489H132.134C134.917 0.288489 137.064 0.961628 138.575 2.30791C140.086 3.63014 140.842 5.4933 140.842 7.89737C140.842 9.46001 140.494 10.8063 139.799 11.9362C139.127 13.0661 138.143 13.9316 136.848 14.5326C135.552 15.1336 133.981 15.4341 132.134 15.4341L132.458 14.8932H133.645C134.629 14.8932 135.481 15.1336 136.2 15.6144C136.944 16.0952 137.592 16.8525 138.143 17.8863L140.842 22.8988C141.13 23.4036 141.262 23.8964 141.238 24.3773C141.214 24.8581 141.034 25.2547 140.698 25.5673C140.362 25.8558 139.87 26 139.223 26C138.575 26 138.047 25.8678 137.64 25.6033C137.232 25.3148 136.872 24.8821 136.56 24.3051L132.926 17.5978C132.494 16.7804 131.978 16.2395 131.378 15.975C130.803 15.6865 130.059 15.5423 129.147 15.5423H125.729V23.62C125.729 24.3652 125.537 24.9542 125.153 25.387C124.77 25.7957 124.194 26 123.426 26ZM125.729 12.1165H131.342C132.998 12.1165 134.245 11.7799 135.085 11.1068C135.948 10.4096 136.38 9.37587 136.38 8.00555C136.38 6.65927 135.948 5.64956 135.085 4.97642C134.245 4.27924 132.998 3.93065 131.342 3.93065H125.729V12.1165Z" fill="#464199"/>
  <path d="M148.094 26C147.351 26 146.775 25.7957 146.367 25.387C145.983 24.9542 145.791 24.3652 145.791 23.62V2.63246C145.791 1.86315 145.995 1.28618 146.403 0.901527C146.811 0.492835 147.387 0.288489 148.13 0.288489H156.802C159.585 0.288489 161.732 0.961628 163.243 2.30791C164.755 3.63014 165.51 5.4933 165.51 7.89737C165.51 9.46001 165.162 10.8063 164.467 11.9362C163.795 13.0661 162.811 13.9316 161.516 14.5326C160.221 15.1336 158.649 15.4341 156.802 15.4341L157.126 14.8932H158.314C159.297 14.8932 160.149 15.1336 160.868 15.6144C161.612 16.0952 162.26 16.8525 162.811 17.8863L165.51 22.8988C165.798 23.4036 165.93 23.8964 165.906 24.3773C165.882 24.8581 165.702 25.2547 165.366 25.5673C165.03 25.8558 164.539 26 163.891 26C163.243 26 162.716 25.8678 162.308 25.6033C161.9 25.3148 161.54 24.8821 161.228 24.3051L157.594 17.5978C157.162 16.7804 156.646 16.2395 156.047 15.975C155.471 15.6865 154.727 15.5423 153.816 15.5423H150.397V23.62C150.397 24.3652 150.205 24.9542 149.822 25.387C149.438 25.7957 148.862 26 148.094 26ZM150.397 12.1165H156.011C157.666 12.1165 158.913 11.7799 159.753 11.1068C160.617 10.4096 161.048 9.37587 161.048 8.00555C161.048 6.65927 160.617 5.64956 159.753 4.97642C158.913 4.27924 157.666 3.93065 156.011 3.93065H150.397V12.1165Z" fill="#464199"/>
  <path d="M178.527 26C177.783 26 177.207 25.7957 176.799 25.387C176.416 24.9542 176.224 24.3532 176.224 23.5839V12.6214L177.195 15.3981L168.523 3.17337C168.211 2.74064 168.067 2.28387 168.091 1.80305C168.139 1.2982 168.343 0.877487 168.703 0.540917C169.063 0.180306 169.567 0 170.214 0C170.694 0 171.126 0.120204 171.51 0.360612C171.918 0.601019 172.302 0.973649 172.661 1.4785L179.102 10.638H178.095L184.572 1.4785C184.956 0.949608 185.327 0.576978 185.687 0.360612C186.047 0.120204 186.491 0 187.019 0C187.642 0 188.122 0.168285 188.458 0.504854C188.818 0.817384 188.998 1.21406 188.998 1.69487C189.022 2.17568 188.854 2.68054 188.494 3.20943L179.894 15.3981L180.83 12.6214V23.5839C180.83 25.1946 180.062 26 178.527 26Z" fill="#464199"/>
</svg>