<svg xmlns="http://www.w3.org/2000/svg" width="20" height="20" viewBox="0 0 20 20" fill="none">
  <path d="M15.5988 0.703369V3.80439H12.7326C11.8258 3.80439 10.8246 4.24704 9.98715 5.09305C9.14978 5.93907 8.23978 7.19414 6.79503 9.25812C5.34377 11.3314 4.53558 12.5842 4.03158 13.1472C3.52758 13.7102 3.60865 13.6619 2.87512 13.6619H0V16.1263H2.87512C3.97642 16.1263 5.08412 15.666 5.86703 14.7914C6.64995 13.9169 7.3889 12.7054 8.81273 10.6713C10.2431 8.62794 11.1524 7.41864 11.7379 6.8271C12.3234 6.23559 12.3486 6.26877 12.7327 6.26877H15.5988V9.50455L20 5.10459L15.5988 0.703369ZM0 3.80437V6.26875H2.87512C3.60865 6.26875 3.52758 6.21917 4.03158 6.78217C4.35585 7.1444 4.89003 7.9126 5.55642 8.88075C5.64673 8.7512 5.6893 8.68874 5.78488 8.55215C6.14788 8.03359 6.4776 7.5657 6.78218 7.13899C6.88818 6.99049 6.97698 6.87334 7.07742 6.73467C6.62707 6.08402 6.252 5.56799 5.86703 5.13795C5.08412 4.26339 3.97642 3.80437 2.87512 3.80437H0ZM15.5988 10.4954V13.6619H12.7326C12.3486 13.6619 12.3234 13.6938 11.7379 13.1023C11.3506 12.711 10.8021 12.0174 10.0744 11.023C9.9864 11.1478 9.91517 11.2466 9.82283 11.3785C9.31332 12.1064 8.96203 12.6316 8.59322 13.1754C9.11647 13.8684 9.56188 14.4067 9.98717 14.8363C10.8245 15.6824 11.8258 16.1263 12.7327 16.1263H15.5988V19.2966L20 14.8967L15.5988 10.4954Z" fill="white"/>
</svg>